<mxfile host="app.diagrams.net" modified="2022-10-31T07:13:48.793Z" agent="5.0 (Windows NT 10.0; Win64; x64) AppleWebKit/537.36 (KHTML, like Gecko) Chrome/106.0.0.0 Safari/537.36" etag="eLS_45-Jq9MOggZ3HaMn" version="20.5.1" type="github">
  <diagram id="YG-Mw0GuXQCD-TZSJakv" name="第 1 页">
    <mxGraphModel dx="1497" dy="2005" grid="1" gridSize="10" guides="1" tooltips="1" connect="1" arrows="1" fold="1" page="1" pageScale="1" pageWidth="827" pageHeight="1169" math="0" shadow="0">
      <root>
        <mxCell id="0" />
        <mxCell id="1" parent="0" />
        <mxCell id="n3BbXRDcr3IELqJ-CT---23" value="用户动态" style="swimlane;startSize=20;horizontal=1;containerType=tree;" vertex="1" parent="1">
          <mxGeometry x="10" y="-30" width="930" height="450" as="geometry" />
        </mxCell>
        <mxCell id="n3BbXRDcr3IELqJ-CT---24" value="" style="edgeStyle=entityRelationEdgeStyle;startArrow=none;endArrow=none;segment=10;curved=1;rounded=0;" edge="1" parent="n3BbXRDcr3IELqJ-CT---23" source="n3BbXRDcr3IELqJ-CT---28" target="n3BbXRDcr3IELqJ-CT---29">
          <mxGeometry relative="1" as="geometry" />
        </mxCell>
        <mxCell id="n3BbXRDcr3IELqJ-CT---29" value="动态列表：/jeecg-boot/squaredynamic/squareDynamic/queryDynamicNews" style="whiteSpace=wrap;html=1;rounded=1;arcSize=50;align=center;verticalAlign=middle;strokeWidth=1;autosize=1;spacing=4;treeFolding=1;treeMoving=1;newEdgeStyle={&quot;edgeStyle&quot;:&quot;entityRelationEdgeStyle&quot;,&quot;startArrow&quot;:&quot;none&quot;,&quot;endArrow&quot;:&quot;none&quot;,&quot;segment&quot;:10,&quot;curved&quot;:1};" vertex="1" parent="n3BbXRDcr3IELqJ-CT---23">
          <mxGeometry x="300" y="40" width="450" height="30" as="geometry" />
        </mxCell>
        <mxCell id="n3BbXRDcr3IELqJ-CT---28" value="用户动态" style="ellipse;whiteSpace=wrap;html=1;align=center;treeFolding=1;treeMoving=1;newEdgeStyle={&quot;edgeStyle&quot;:&quot;entityRelationEdgeStyle&quot;,&quot;startArrow&quot;:&quot;none&quot;,&quot;endArrow&quot;:&quot;none&quot;,&quot;segment&quot;:10,&quot;curved&quot;:1};" vertex="1" parent="n3BbXRDcr3IELqJ-CT---23">
          <mxGeometry x="140" y="130" width="100" height="40" as="geometry" />
        </mxCell>
        <mxCell id="n3BbXRDcr3IELqJ-CT---41" value="动态分享：/jeecg-boot/squaredynamic/squareDynamic/shareNum" style="whiteSpace=wrap;html=1;rounded=1;arcSize=50;align=center;verticalAlign=middle;strokeWidth=1;autosize=1;spacing=4;treeFolding=1;treeMoving=1;newEdgeStyle={&quot;edgeStyle&quot;:&quot;entityRelationEdgeStyle&quot;,&quot;startArrow&quot;:&quot;none&quot;,&quot;endArrow&quot;:&quot;none&quot;,&quot;segment&quot;:10,&quot;curved&quot;:1};" vertex="1" parent="n3BbXRDcr3IELqJ-CT---23">
          <mxGeometry x="300" y="95" width="390" height="30" as="geometry" />
        </mxCell>
        <mxCell id="n3BbXRDcr3IELqJ-CT---42" value="" style="edgeStyle=entityRelationEdgeStyle;startArrow=none;endArrow=none;segment=10;curved=1;rounded=0;" edge="1" parent="n3BbXRDcr3IELqJ-CT---23" source="n3BbXRDcr3IELqJ-CT---28" target="n3BbXRDcr3IELqJ-CT---41">
          <mxGeometry relative="1" as="geometry">
            <mxPoint x="260" y="80" as="sourcePoint" />
            <mxPoint x="320" y="50" as="targetPoint" />
          </mxGeometry>
        </mxCell>
        <mxCell id="n3BbXRDcr3IELqJ-CT---43" value="评论" style="whiteSpace=wrap;html=1;rounded=1;arcSize=50;align=center;verticalAlign=middle;strokeWidth=1;autosize=1;spacing=4;treeFolding=1;treeMoving=1;newEdgeStyle={&quot;edgeStyle&quot;:&quot;entityRelationEdgeStyle&quot;,&quot;startArrow&quot;:&quot;none&quot;,&quot;endArrow&quot;:&quot;none&quot;,&quot;segment&quot;:10,&quot;curved&quot;:1};" vertex="1" parent="n3BbXRDcr3IELqJ-CT---23">
          <mxGeometry x="300" y="210" width="70" height="30" as="geometry" />
        </mxCell>
        <mxCell id="n3BbXRDcr3IELqJ-CT---44" value="" style="edgeStyle=entityRelationEdgeStyle;startArrow=none;endArrow=none;segment=10;curved=1;rounded=0;" edge="1" parent="n3BbXRDcr3IELqJ-CT---23" source="n3BbXRDcr3IELqJ-CT---28" target="n3BbXRDcr3IELqJ-CT---43">
          <mxGeometry relative="1" as="geometry">
            <mxPoint x="260" y="80" as="sourcePoint" />
            <mxPoint x="320" y="110" as="targetPoint" />
          </mxGeometry>
        </mxCell>
        <mxCell id="n3BbXRDcr3IELqJ-CT---55" value="" style="edgeStyle=entityRelationEdgeStyle;startArrow=none;endArrow=none;segment=10;curved=1;rounded=0;" edge="1" target="n3BbXRDcr3IELqJ-CT---56" source="n3BbXRDcr3IELqJ-CT---43" parent="n3BbXRDcr3IELqJ-CT---23">
          <mxGeometry relative="1" as="geometry">
            <mxPoint x="480" y="200" as="sourcePoint" />
            <mxPoint x="320" y="110" as="targetPoint" />
          </mxGeometry>
        </mxCell>
        <mxCell id="n3BbXRDcr3IELqJ-CT---56" value="评论列表：/jeecg-boot/squaredynamic/squareDynamic/getDynamicDetail" style="whiteSpace=wrap;html=1;rounded=1;arcSize=50;align=center;verticalAlign=middle;strokeWidth=1;autosize=1;spacing=4;treeFolding=1;treeMoving=1;newEdgeStyle={&quot;edgeStyle&quot;:&quot;entityRelationEdgeStyle&quot;,&quot;startArrow&quot;:&quot;none&quot;,&quot;endArrow&quot;:&quot;none&quot;,&quot;segment&quot;:10,&quot;curved&quot;:1};" vertex="1" parent="n3BbXRDcr3IELqJ-CT---23">
          <mxGeometry x="410" y="170" width="430" height="30" as="geometry" />
        </mxCell>
        <mxCell id="n3BbXRDcr3IELqJ-CT---59" value="评论保存：" style="whiteSpace=wrap;html=1;rounded=1;arcSize=50;align=center;verticalAlign=middle;strokeWidth=1;autosize=1;spacing=4;treeFolding=1;treeMoving=1;newEdgeStyle={&quot;edgeStyle&quot;:&quot;entityRelationEdgeStyle&quot;,&quot;startArrow&quot;:&quot;none&quot;,&quot;endArrow&quot;:&quot;none&quot;,&quot;segment&quot;:10,&quot;curved&quot;:1};" vertex="1" parent="n3BbXRDcr3IELqJ-CT---23">
          <mxGeometry x="410" y="250" width="100" height="30" as="geometry" />
        </mxCell>
        <mxCell id="n3BbXRDcr3IELqJ-CT---60" value="" style="edgeStyle=entityRelationEdgeStyle;startArrow=none;endArrow=none;segment=10;curved=1;rounded=0;" edge="1" parent="n3BbXRDcr3IELqJ-CT---23" source="n3BbXRDcr3IELqJ-CT---43" target="n3BbXRDcr3IELqJ-CT---59">
          <mxGeometry relative="1" as="geometry">
            <mxPoint x="395" y="160" as="sourcePoint" />
            <mxPoint x="440" y="160" as="targetPoint" />
          </mxGeometry>
        </mxCell>
      </root>
    </mxGraphModel>
  </diagram>
</mxfile>
